<svg width="38" height="23" viewBox="0 0 38 23" fill="none" xmlns="http://www.w3.org/2000/svg">
<path d="M35.5931 13.2129C35.5925 13.2748 35.562 13.3062 35.5615 13.3681L35.5612 13.399C35.5607 13.4609 35.5302 13.4922 35.5297 13.5541C35.5292 13.616 35.4987 13.6473 35.4982 13.7092C35.4976 13.7711 35.4671 13.8024 35.4666 13.8643C35.4663 13.8953 35.4358 13.9266 35.4356 13.9576C35.4045 14.0508 35.3732 14.1749 35.3422 14.2682C35.3114 14.3305 35.3111 14.3614 35.2804 14.4237C35.2496 14.486 35.2493 14.5169 35.2185 14.5792C35.2185 14.5792 35.2183 14.6101 35.188 14.6105C35.188 14.6105 35.188 14.6105 35.1877 14.6415C35.1875 14.6724 35.1875 14.6724 35.157 14.7038C35.1262 14.766 35.0954 14.8283 35.0646 14.8906C35.0338 14.9529 35.0336 14.9838 35.0028 15.0461C35.0028 15.0461 35.0028 15.0461 35.0025 15.077L35.0023 15.108C34.9712 15.2012 34.9404 15.2635 34.8791 15.3571C34.8486 15.3885 34.8481 15.4503 34.8175 15.4817C34.8173 15.5126 34.787 15.513 34.7868 15.544C34.7557 15.6372 34.6946 15.6999 34.6636 15.7931C34.6633 15.824 34.6328 15.8554 34.6328 15.8554C34.6023 15.8867 34.602 15.9177 34.5715 15.949C34.4794 16.1049 34.3873 16.2608 34.2952 16.4167C31.4752 20.6304 25.8947 21.8173 21.8303 19.0241C21.499 18.8119 21.1683 18.5377 20.8678 18.2632L22.5539 15.7041C22.8239 16.01 23.1549 16.2531 23.486 16.4963C23.516 16.5269 23.5463 16.5265 23.5763 16.557C23.8473 16.7391 24.1185 16.8903 24.39 17.0105C24.7519 17.1914 25.1445 17.31 25.5374 17.3977C25.5676 17.3973 25.5979 17.3969 25.6279 17.4274C26.0208 17.5151 26.4445 17.5405 26.8381 17.5353C29.6238 17.4989 32.0016 15.5185 32.6893 12.8797C32.7827 12.5691 32.8157 12.2283 32.8485 11.9185C32.8485 11.9185 32.8485 11.9185 32.8488 11.8875C33.0482 9.71917 32.1274 7.56546 30.291 6.29004C29.2673 5.59183 28.0589 5.26732 26.8478 5.28317C26.6964 5.28515 26.545 5.28714 26.3933 5.32006C26.3631 5.32046 26.3631 5.32046 26.3328 5.32085C26.2117 5.32244 26.1206 5.35457 25.9994 5.35616C25.9084 5.38829 25.7872 5.38987 25.6961 5.42201L25.6659 5.4224C25.3626 5.48825 25.059 5.58504 24.7857 5.68144C22.7507 6.48157 21.1612 8.3278 20.8101 10.5291L20.7778 10.777L17.8417 10.6917L17.8745 10.3819C18.0043 9.32825 18.2849 8.33452 18.7467 7.40029C18.747 7.36934 18.7775 7.33801 18.7775 7.33801C19.0548 6.74653 19.4228 6.1848 19.851 5.65322L19.8815 5.62188L20.065 5.4029C21.5323 3.68202 23.5389 2.6657 25.6607 2.35946C26.0851 2.29203 26.5396 2.25514 26.9635 2.24959C31.354 2.19212 34.9911 5.39315 35.7131 9.65334L35.7128 9.68429C35.7421 9.80766 35.7413 9.90049 35.7706 10.0239C35.7701 10.0857 35.7696 10.1476 35.7996 10.1782C35.7988 10.271 35.8286 10.3325 35.8278 10.4253C35.8271 10.5182 35.8566 10.6106 35.8558 10.7034C35.8556 10.7344 35.8551 10.7962 35.8548 10.8272C35.8538 10.951 35.8528 11.0747 35.8515 11.2294L35.8513 11.2604C35.8513 11.2604 35.8513 11.2604 35.851 11.2913C35.8162 11.8487 35.75 12.5302 35.5931 13.2129ZM20.2183 12.5479C20.0885 13.6016 19.8079 14.5953 19.3464 15.4986C19.3461 15.5295 19.3156 15.5609 19.3153 15.5918C19.038 16.1833 18.6701 16.745 18.2418 17.2766L18.2113 17.3079L18.0278 17.5269C16.5605 19.2478 14.5539 20.2641 12.4321 20.5703C12.0077 20.6378 11.5532 20.6747 11.1293 20.6802C6.73883 20.7377 3.10169 17.5367 2.37973 13.2765L2.37999 13.2455C2.35072 13.1221 2.35174 12.9984 2.32222 12.9059C2.32273 12.8441 2.32324 12.7822 2.29321 12.7516C2.29397 12.6588 2.2642 12.5973 2.26496 12.5045C2.26572 12.4117 2.23621 12.3192 2.23697 12.2264C2.23722 12.1954 2.23773 12.1336 2.23798 12.1026C2.239 11.9788 2.24001 11.8551 2.24128 11.7004L2.24154 11.6694C2.24154 11.6694 2.24154 11.6694 2.24179 11.6385C2.24712 10.9887 2.31326 10.3071 2.46999 9.65537C2.4705 9.59348 2.50128 9.5312 2.50154 9.50026L2.50179 9.46931C2.5023 9.40743 2.53283 9.37609 2.53334 9.3142C2.53385 9.25232 2.56438 9.22098 2.56489 9.15909C2.5654 9.09721 2.59593 9.06587 2.59644 9.00398C2.59669 8.97304 2.62722 8.9417 2.62748 8.91075C2.65852 8.81753 2.68981 8.69336 2.72085 8.60014C2.75164 8.53786 2.75189 8.50691 2.78268 8.44463C2.81347 8.38235 2.81372 8.35141 2.84451 8.28912C2.84451 8.28912 2.84476 8.25818 2.87504 8.25779C2.87504 8.25779 2.87504 8.25779 2.8753 8.22684C2.87555 8.1959 2.87555 8.1959 2.90583 8.1955C2.93662 8.13322 2.9674 8.07094 2.99819 8.00866C3.02898 7.94638 3.02923 7.91543 3.06002 7.85315C3.06002 7.85315 3.06002 7.85315 3.06027 7.82221C3.06027 7.82221 3.06027 7.82221 3.06053 7.79127C3.09157 7.69804 3.12235 7.63576 3.18367 7.54214C3.21421 7.5108 3.21471 7.44891 3.24525 7.41758C3.2455 7.38663 3.27603 7.35529 3.27603 7.35529C3.30682 7.29301 3.36814 7.19939 3.39893 7.13711C3.39918 7.10617 3.42971 7.07483 3.42971 7.07483C3.46025 7.04349 3.4605 7.01254 3.49104 6.98121C3.58314 6.8253 3.67525 6.6694 3.76736 6.5135C6.58732 2.29975 12.1678 1.11288 16.2322 3.9061C16.5635 4.11834 16.8943 4.39247 17.1948 4.66699L15.5086 7.2261C15.2386 6.92024 14.9076 6.67706 14.5765 6.43387C14.5465 6.40333 14.5162 6.40372 14.5162 6.40372C14.2453 6.22163 13.974 6.07049 13.7025 5.95028C13.3407 5.76938 12.9481 5.65077 12.5552 5.56309C12.5249 5.56349 12.4946 5.56388 12.4646 5.53334C12.0717 5.44566 11.6481 5.42027 11.2545 5.42542C8.46877 5.46189 6.09099 7.4422 5.40327 10.0811C5.3099 10.3917 5.27682 10.7324 5.24401 11.0423C5.24401 11.0423 5.24401 11.0423 5.24375 11.0732C5.04431 13.2416 5.9652 15.3953 7.80157 16.6707C8.82523 17.3689 10.0336 17.6934 11.2448 17.6776C11.3962 17.6756 11.5476 17.6736 11.6992 17.6407L11.7295 17.6403C11.8506 17.6387 11.9417 17.6066 12.0628 17.605C12.1539 17.5729 12.275 17.5713 12.3661 17.5391L12.3964 17.5387C12.6997 17.4729 13.0033 17.3761 13.2765 17.2797C15.3116 16.4796 16.9011 14.6333 17.2825 12.4316L17.3148 12.1837L20.2509 12.269L20.2183 12.5479ZM27.1624 0.143104C23.9831 0.184724 21.1254 1.61441 19.109 3.83751C17.1286 1.66673 14.2937 0.311565 11.1144 0.353184C5.08884 0.432064 0.142473 5.50901 0.0919608 11.6666C0.0414485 17.8242 4.90557 22.7728 10.9311 22.6939C14.1105 22.6523 16.9681 21.2226 18.9846 18.9995C20.965 21.1702 23.7998 22.5254 26.9792 22.4838C33.0047 22.4049 37.9511 17.328 38.0016 11.1704C38.0218 5.01314 33.188 0.0642251 27.1624 0.143104Z" fill="white"/>
</svg>
